<svg width="20" height="20" viewBox="0 0 20 20" fill="none" xmlns="http://www.w3.org/2000/svg">
<path d="M9.70856 0H10.0611C11.5528 0.0324365 13.0383 0.394644 14.3663 1.07736C16.3523 2.08791 17.9791 3.78774 18.8935 5.82043C19.4496 7.03757 19.7396 8.37055 19.7708 9.7074V10.0627C19.7361 11.7061 19.2959 13.3415 18.4757 14.7679C17.7806 15.9893 16.821 17.0593 15.6834 17.8845C14.4617 18.7742 13.0333 19.3797 11.542 19.6291C11.0539 19.7156 10.5585 19.7535 10.0634 19.7708H9.70856C7.89598 19.7341 6.0942 19.1982 4.57007 18.2143C2.57407 16.9438 1.05959 14.9359 0.399278 12.6626C0.14944 11.8193 0.0239412 10.9419 0 10.0638V9.70817C0.036298 7.91451 0.561461 6.13128 1.52645 4.61718C2.31072 3.37533 3.37456 2.31149 4.61603 1.52722C6.1305 0.561461 7.91413 0.036298 9.70856 0ZM6.34829 4.26733C5.72543 4.2878 5.12227 4.59711 4.73728 5.08636C4.42141 5.47868 4.25498 5.98338 4.26347 6.48615C4.26347 8.76558 4.2627 11.045 4.26424 13.3241C4.25845 13.9697 4.55926 14.6084 5.06126 15.0142C5.44741 15.3351 5.94747 15.5097 6.44869 15.5077C8.72697 15.5097 11.0052 15.5085 13.2835 15.5085C13.6581 15.5116 14.035 15.4274 14.364 15.2467C14.9293 14.9447 15.3467 14.381 15.4657 13.7508C15.5209 13.4832 15.505 13.2086 15.5074 12.9375C15.507 10.7747 15.5085 8.6119 15.5066 6.44908C15.5116 5.83896 15.2448 5.23425 14.7911 4.82725C14.3844 4.455 13.8334 4.25343 13.2831 4.26386C10.9717 4.2654 8.65978 4.25845 6.34829 4.26733Z" fill="#878787"/>
<path d="M12.3003 5.56403C12.9356 5.5621 13.5712 5.56056 14.2068 5.55862C14.2068 6.19384 14.2068 6.82905 14.2068 7.46466C13.5735 7.46697 12.9406 7.4689 12.3077 7.47045C12.3046 6.83485 12.3023 6.19963 12.3003 5.56403Z" fill="#878787"/>
<path d="M9.55523 7.93614C10.0954 7.84154 10.6712 7.98827 11.101 8.32886C11.5945 8.71192 11.8853 9.33786 11.8613 9.96227C11.8412 10.7832 11.2439 11.5362 10.4646 11.7764C9.96957 11.9274 9.40888 11.8834 8.95747 11.6243C8.51494 11.3953 8.17899 10.9848 8.0114 10.5183C7.84961 10.0457 7.88397 9.51279 8.09288 9.06022C8.35855 8.47675 8.92117 8.03963 9.55523 7.93614Z" fill="#878787"/>
<path d="M5.35829 8.7316C5.91744 8.73199 6.47697 8.73122 7.03611 8.73199C6.79438 9.33979 6.7438 10.0233 6.91177 10.6569C7.10755 11.4273 7.61997 12.1089 8.30114 12.517C8.88576 12.8754 9.59319 13.0198 10.2724 12.9337C10.9795 12.8483 11.6494 12.5 12.1333 11.9783C12.6241 11.4555 12.923 10.7554 12.9538 10.0383C12.9789 9.5931 12.8963 9.14555 12.7326 8.73199C13.2921 8.73122 13.852 8.7316 14.4119 8.7316C14.4123 10.1461 14.4116 11.5605 14.4119 12.9746C14.41 13.221 14.4309 13.477 14.3393 13.7114C14.2127 14.0628 13.8876 14.3315 13.5196 14.3922C13.3906 14.4126 13.2597 14.413 13.1295 14.4122C10.9038 14.4103 8.67802 14.4138 6.45225 14.4107C6.06263 14.4157 5.67802 14.1972 5.49422 13.8519C5.38996 13.6674 5.35559 13.4534 5.35752 13.2438C5.35868 11.7397 5.35713 10.2357 5.35829 8.7316Z" fill="#878787"/>
</svg>
