<svg width="20" height="20" viewBox="0 0 20 20" fill="none" xmlns="http://www.w3.org/2000/svg">
<path d="M9.90011 0H10.2893C11.8011 0.0316642 13.3071 0.402367 14.6494 1.10207C16.7454 2.17865 18.4286 4.03178 19.2967 6.22279C19.738 7.31714 19.9659 8.49219 19.9998 9.67033V10.0623C19.9666 11.688 19.5368 13.3059 18.7352 14.7223C18.0146 16.0043 17.0056 17.123 15.8024 17.9687C14.2014 19.1055 12.2537 19.7345 10.292 19.7708H9.93834C8.11494 19.7357 6.30274 19.1943 4.77166 18.2011C2.6517 16.8469 1.08432 14.6544 0.505101 12.205C0.332106 11.5042 0.250628 10.7836 0.229004 10.063V9.67303C0.26453 8.36669 0.544488 7.0646 1.08046 5.8714C1.86473 4.10206 3.18343 2.57484 4.81839 1.53958C6.329 0.571887 8.10838 0.0432487 9.90011 0ZM7.7759 6.41548C7.93075 6.49928 8.11764 6.50623 8.26091 6.61435C8.44703 6.73676 8.537 6.95339 8.57484 7.165C8.65941 7.70754 8.66404 8.25973 8.62582 8.80652C8.60651 9.08841 8.58566 9.38651 8.43583 9.63403C8.381 9.73521 8.26052 9.80355 8.14545 9.7661C7.90565 9.68655 7.73265 9.48691 7.58592 9.29036C7.01673 8.51922 6.55528 7.67085 6.18613 6.78696C6.11083 6.61666 6.03823 6.42822 5.87605 6.32126C5.75094 6.23322 5.59184 6.22434 5.44395 6.22472C4.82572 6.22704 4.20711 6.22357 3.5885 6.22665C3.44408 6.23322 3.26143 6.25214 3.18961 6.3981C3.12783 6.53943 3.19193 6.69428 3.25062 6.82519C3.43597 7.21867 3.61746 7.61409 3.80552 8.00642C4.08007 8.53158 4.33995 9.06485 4.63883 9.57688C5.01571 10.2268 5.42155 10.8608 5.87528 11.4601C6.37611 12.1116 6.95418 12.7213 7.66894 13.1395C8.57098 13.6859 9.65259 13.8759 10.6956 13.8056C10.8512 13.7863 11.0296 13.7817 11.147 13.6616C11.2748 13.5318 11.2694 13.3372 11.2929 13.1688C11.3192 12.8028 11.3601 12.4039 11.6053 12.112C11.6972 11.9895 11.8718 11.9432 12.0131 12.0019C12.2518 12.0888 12.4302 12.2792 12.5981 12.4618C12.829 12.7198 13.0627 12.975 13.2994 13.2279C13.5245 13.4558 13.7813 13.6697 14.0964 13.7562C14.3451 13.8388 14.6088 13.8091 14.866 13.8118C15.4568 13.8114 16.048 13.8133 16.6388 13.8114C16.862 13.8176 17.0361 13.6156 17.0504 13.4032C17.0871 13.1295 16.901 12.9055 16.7678 12.6873C16.3001 12.0235 15.6792 11.4926 15.1027 10.928C14.9672 10.7878 14.822 10.6299 14.7973 10.428C14.7768 10.2202 14.8934 10.0333 15.0062 9.8692C15.4012 9.32705 15.8078 8.79339 16.2055 8.25316C16.5388 7.79017 16.8747 7.31057 17.0338 6.75568C17.069 6.62091 17.0917 6.45023 16.9705 6.35022C16.8091 6.23862 16.6025 6.21932 16.4114 6.21932C15.702 6.21932 14.9926 6.21584 14.2833 6.21816C14.1308 6.21584 13.9659 6.25407 13.8651 6.37764C13.7226 6.5626 13.667 6.79584 13.5705 7.00513C13.1913 7.86509 12.7522 8.715 12.122 9.42011C12.0332 9.52321 11.9459 9.63288 11.8289 9.70586C11.7069 9.78425 11.5316 9.7522 11.4443 9.63674C11.3126 9.46606 11.2597 9.24673 11.2605 9.03434C11.2605 8.23656 11.2597 7.43878 11.2601 6.64099C11.2559 6.45719 11.2204 6.26295 11.1064 6.1139C10.991 5.99651 10.8157 5.95249 10.6558 5.95056C9.93409 5.95365 9.21276 5.94863 8.49105 5.95326C8.18715 5.94052 7.88827 6.13359 7.7759 6.41548Z" fill="#878787"/>
</svg>
