<svg width="21" height="20" viewBox="0 0 21 20" fill="none" xmlns="http://www.w3.org/2000/svg">
<path d="M10.3229 0H10.6747C12.1768 0.0316642 13.6735 0.396961 15.0088 1.08855C16.9852 2.09679 18.5996 3.79314 19.5094 5.81656C20.0658 7.03564 20.3555 8.37017 20.3856 9.70856V10.0607C20.3524 11.6972 19.9176 13.3256 19.1059 14.7486C18.3826 16.0275 17.3705 17.1427 16.1657 17.9845C14.5686 19.1117 12.6298 19.7349 10.6766 19.7708H10.326C8.52964 19.7365 6.7437 19.2113 5.22691 18.2459C4.12754 17.5524 3.16719 16.6396 2.41961 15.5765C1.28008 13.9751 0.65143 12.0255 0.614746 10.0619V9.71049C0.635598 9.02122 0.709353 8.33194 0.868446 7.66043C1.21907 6.12278 1.95198 4.67627 2.97566 3.47766C3.83021 2.47174 4.88942 1.64075 6.06872 1.04878C7.38394 0.383446 8.85053 0.0316642 10.3229 0ZM8.15585 5.03963C7.3905 5.06126 6.62477 5.0879 5.86251 5.16359C5.48717 5.20143 5.09369 5.19564 4.7477 5.36593C4.22331 5.6038 3.85261 6.11544 3.74796 6.67652C3.48268 7.95892 3.52592 9.27685 3.52322 10.5793C3.53944 11.4451 3.57033 12.3185 3.76225 13.1661C3.88388 13.7268 4.28509 14.225 4.82184 14.4381C5.14003 14.5744 5.49142 14.5702 5.83008 14.6045C6.81707 14.7003 7.80909 14.7266 8.79995 14.7409C9.9333 14.7536 11.0666 14.7536 12.2 14.7409C13.399 14.7285 14.5988 14.6783 15.7908 14.5451C16.3102 14.4694 16.7778 14.1373 17.0373 13.6836C17.2323 13.3499 17.2848 12.9603 17.3458 12.5854C17.4829 11.5887 17.4825 10.5801 17.4786 9.57573C17.4732 8.59259 17.4551 7.5998 17.2473 6.63481C17.135 6.08185 16.7569 5.58449 16.2368 5.35705C15.8688 5.18367 15.4533 5.20027 15.0583 5.15625C14.4034 5.08906 13.7454 5.07284 13.0881 5.04388C11.4443 5.01337 9.80007 5.01222 8.15585 5.03963Z" fill="#878787"/>
<path d="M8.69751 7.4407C10.1807 8.1991 11.65 8.9853 13.1328 9.74486C12.4659 10.1105 11.7828 10.4473 11.1094 10.8021C10.3058 11.218 9.50263 11.6354 8.69829 12.0509C8.6979 10.5145 8.69944 8.97758 8.69751 7.4407Z" fill="#878787"/>
</svg>
