<?xml version="1.0" standalone="no"?>
<!DOCTYPE svg PUBLIC "-//W3C//DTD SVG 20010904//EN"
 "http://www.w3.org/TR/2001/REC-SVG-20010904/DTD/svg10.dtd">
<svg version="1.0" xmlns="http://www.w3.org/2000/svg"
 width="700.000000pt" height="700.000000pt" viewBox="0 0 700.000000 700.000000"
 preserveAspectRatio="xMidYMid meet">
<metadata>
Created by potrace 1.14, written by Peter Selinger 2001-2017
</metadata>
<g transform="translate(0.000000,700.000000) scale(0.100000,-0.100000)"
fill="#000000" stroke="none">
<path d="M3454 5940 c-47 -10 -123 -97 -108 -122 4 -7 3 -8 -4 -4 -6 4 -19 -6
-29 -21 -10 -15 -20 -30 -23 -33 -3 -3 -23 -27 -44 -54 -64 -79 -267 -276
-286 -276 -3 0 -23 -15 -43 -34 -20 -18 -37 -32 -37 -29 0 2 -19 -9 -42 -25
-48 -33 -178 -112 -184 -112 -2 0 -38 -17 -81 -38 -88 -43 -312 -126 -333
-124 -3 0 -12 -4 -21 -9 -9 -4 -30 -11 -48 -14 -17 -3 -59 -12 -93 -19 -138
-32 -234 -41 -413 -40 -174 1 -285 6 -285 15 0 3 -17 4 -37 2 -25 -3 -46 -13
-61 -31 -23 -26 -23 -30 -17 -187 3 -88 7 -178 9 -200 9 -88 19 -181 21 -195
2 -8 4 -20 4 -27 1 -15 81 -15 81 1 0 6 5 4 10 -4 9 -13 11 -13 20 0 6 10 10
11 10 3 0 -7 7 -13 15 -13 8 0 15 6 15 13 0 8 4 7 10 -3 9 -13 11 -13 19 0 5
8 8 17 6 20 -5 8 -22 222 -29 376 l-3 62 56 -6 c79 -8 335 -8 406 1 33 3 83 9
110 12 28 4 61 10 75 15 14 5 43 12 65 15 22 4 51 9 65 12 14 3 31 6 38 6 6 0
12 3 12 7 0 3 9 6 21 7 54 4 365 124 381 148 4 5 8 6 8 2 0 -8 117 53 198 103
23 14 39 30 35 35 -5 4 -2 5 4 1 14 -8 193 119 193 136 0 6 3 9 6 5 3 -3 20 7
38 23 17 17 35 30 40 30 4 0 5 7 2 16 -4 9 -2 13 5 8 12 -7 141 123 217 219
l46 59 31 -35 c16 -19 44 -52 62 -73 68 -85 243 -250 283 -268 11 -5 20 -12
20 -16 0 -4 26 -25 58 -46 31 -22 59 -42 62 -45 9 -11 160 -99 169 -99 5 0 14
-7 21 -15 7 -9 15 -13 18 -10 3 3 12 -1 21 -9 9 -8 19 -15 24 -15 4 0 21 -8
38 -17 26 -13 33 -14 41 -2 8 10 9 10 5 -3 -4 -12 12 -23 66 -44 39 -15 75
-29 81 -30 6 -2 21 -6 33 -10 12 -4 25 -6 29 -5 4 1 10 -2 13 -8 6 -9 207 -66
271 -77 192 -32 244 -37 395 -38 94 -1 195 1 225 3 l55 4 -1 -60 c-3 -130 -13
-304 -18 -313 -4 -5 0 -12 6 -14 10 -4 10 -6 1 -6 -8 -1 -13 -15 -13 -34 0
-33 1 -34 43 -34 23 0 45 5 49 11 5 8 8 7 8 -1 0 -14 28 -17 54 -7 9 3 14 9
12 13 -2 3 -1 25 3 48 5 27 4 46 -3 54 -8 9 -8 10 2 5 8 -5 12 4 13 31 1 21 2
52 4 68 11 129 19 313 16 372 -2 35 -90 79 -106 53 -2 -4 -17 -5 -31 -2 -15 3
-24 1 -21 -4 3 -5 -17 -7 -45 -5 -40 2 -49 0 -42 -10 6 -11 5 -12 -7 -3 -8 6
-41 9 -74 7 -33 -2 -64 -4 -70 -4 -31 0 -213 11 -230 15 -11 2 -45 7 -75 12
-30 4 -57 8 -60 9 -13 4 -87 19 -100 20 -8 1 -22 5 -30 8 -38 15 -135 35 -143
30 -6 -3 -7 -1 -3 5 4 7 1 12 -6 12 -14 0 -142 48 -218 82 -25 11 -47 20 -50
20 -3 0 -13 7 -22 15 -10 9 -18 13 -18 10 0 -4 -22 7 -49 23 -26 17 -53 30
-59 30 -6 0 -12 3 -14 8 -3 7 -105 72 -114 72 -2 0 -13 8 -23 18 -20 18 -23
20 -83 65 -51 38 -120 100 -192 174 -33 34 -64 59 -70 56 -5 -4 -6 -1 -1 7 4
7 3 15 -1 19 -5 3 -25 26 -44 51 -19 25 -37 47 -40 50 -4 3 -15 20 -25 38 -11
17 -23 32 -27 32 -4 0 -8 6 -8 13 0 7 -13 26 -30 42 -16 16 -30 25 -30 21 0
-5 -6 -4 -12 1 -7 5 -27 7 -44 3z m197 -217 c13 -16 12 -17 -3 -4 -10 7 -18
15 -18 17 0 8 8 3 21 -13z m194 -303 c3 -5 1 -10 -4 -10 -6 0 -11 5 -11 10 0
6 2 10 4 10 3 0 8 -4 11 -10z"/>
<path d="M4427 4184 c-1 -1 -38 -5 -82 -9 -292 -24 -525 -141 -654 -328 -119
-173 -173 -447 -149 -749 7 -89 9 -107 27 -193 50 -250 211 -454 432 -547 157
-66 264 -80 589 -80 362 0 484 19 650 102 180 90 303 256 346 465 11 50 17
129 19 240 2 105 -1 125 -19 158 -36 67 -34 67 -435 67 -254 0 -368 -3 -386
-12 -43 -19 -66 -68 -70 -150 -2 -57 1 -82 16 -115 31 -65 58 -73 247 -73
l160 0 -5 -37 c-14 -114 -58 -183 -143 -225 -83 -42 -134 -47 -400 -45 -273 3
-313 11 -392 70 -53 40 -102 132 -124 237 -25 112 -25 417 -1 530 36 165 102
248 235 291 59 20 94 23 302 27 350 6 419 -12 500 -130 74 -108 111 -126 265
-123 166 2 212 41 203 171 -11 146 -107 259 -304 358 -67 33 -178 70 -239 80
-16 2 -50 8 -75 12 -37 6 -507 13 -513 8z"/>
<path d="M1496 4160 c-16 -8 -39 -28 -50 -43 -21 -28 -21 -36 -23 -883 l-1
-854 22 -32 c12 -18 33 -38 46 -45 19 -10 170 -13 675 -12 645 1 651 1 742 24
190 48 347 161 411 295 17 36 34 79 37 95 51 249 -10 439 -178 551 -23 15 -44
30 -46 31 -2 2 19 28 48 58 29 30 66 85 83 122 56 118 46 283 -25 416 -78 147
-272 260 -489 283 -29 4 -316 7 -638 8 -502 1 -589 -1 -614 -14z m1175 -351
c84 -19 129 -84 129 -186 0 -71 -29 -128 -80 -157 -33 -20 -52 -21 -417 -23
-374 -2 -383 -2 -384 17 0 11 -1 85 -1 165 0 80 1 156 1 169 l1 24 353 0 c199
1 372 -4 398 -9z m104 -737 c73 -41 109 -124 100 -230 -8 -92 -43 -149 -111
-179 -34 -15 -86 -17 -441 -18 l-403 -1 -1 25 c-3 114 0 411 4 418 3 5 187 8
409 8 400 -1 403 -1 443 -23z"/>
<path d="M2077 2166 c17 -30 91 -132 116 -159 15 -16 27 -33 27 -37 0 -4 9
-18 21 -31 11 -13 39 -46 62 -74 53 -63 146 -164 172 -186 11 -10 50 -47 87
-82 36 -36 84 -78 105 -93 21 -16 40 -32 43 -35 20 -24 134 -98 144 -92 6 3 8
3 4 -2 -7 -8 82 -75 98 -75 4 0 15 -6 23 -14 24 -20 171 -96 187 -96 8 0 14
-4 14 -10 0 -5 8 -10 18 -10 10 0 22 -4 28 -9 11 -10 145 -61 159 -61 6 1 -19
13 -55 29 -139 61 -422 231 -460 276 -7 8 -18 15 -25 15 -7 0 -15 7 -19 15 -3
8 -10 15 -15 15 -5 0 -31 21 -57 46 -145 137 -237 229 -251 250 -8 13 -20 21
-26 17 -5 -3 -7 -1 -3 5 3 6 -6 20 -20 31 -15 12 -23 21 -18 21 5 0 4 4 -1 8
-6 4 -26 27 -45 52 -35 45 -47 60 -65 83 -5 7 -14 20 -20 28 -56 86 -108 161
-121 173 -18 18 -39 21 -28 4 5 -7 3 -8 -6 -3 -22 13 -81 14 -73 1z"/>
<path d="M4774 2163 c3 -8 2 -12 -3 -9 -5 3 -24 -18 -42 -47 -18 -28 -53 -78
-77 -110 -25 -34 -40 -62 -36 -70 4 -6 4 -9 -1 -5 -11 10 -56 -44 -51 -59 3
-7 -1 -10 -10 -6 -7 3 -14 1 -14 -5 0 -5 -11 -20 -25 -33 -13 -13 -25 -27 -25
-31 0 -3 -22 -30 -50 -59 -27 -29 -50 -56 -50 -61 0 -4 -7 -8 -15 -8 -8 0 -15
-4 -15 -10 0 -5 -21 -29 -47 -52 -26 -24 -61 -57 -78 -73 -17 -17 -47 -42 -66
-56 -19 -15 -50 -41 -69 -58 -19 -17 -40 -31 -47 -31 -6 0 -13 -4 -15 -8 -5
-14 -236 -163 -258 -168 -12 -2 -214 -103 -208 -104 18 0 295 116 308 130 3 3
37 22 75 42 39 20 69 42 68 47 -2 6 3 8 10 5 7 -2 22 5 34 16 12 11 27 20 32
20 37 0 437 352 424 373 -3 5 -1 7 4 4 10 -6 40 26 137 141 20 24 33 49 29 54
-3 6 -1 8 4 5 12 -8 36 17 26 26 -3 4 -1 7 5 7 14 0 146 185 141 196 -2 5 -26
9 -52 10 -37 0 -47 -3 -43 -13z"/>
</g>
</svg>
