<svg width="19" height="10" viewBox="0 0 19 10" fill="none" xmlns="http://www.w3.org/2000/svg">
<g clip-path="url(#clip0_44_104)">
<path d="M9.54743 5.8473C8.74309 4.43809 7.9413 3.02762 7.1368 1.61857C6.18285 4.03238 5.22952 6.44651 4.27525 8.86032C3.99563 8.86048 3.71601 8.86032 3.4364 8.86032C3.43608 9.22429 3.4364 9.58825 3.43624 9.95222C4.87691 9.95238 6.31775 9.95238 7.75842 9.95238C7.75842 9.58825 7.75858 9.22429 7.75826 8.86032C7.54277 8.86032 7.32712 8.86048 7.11163 8.86032C7.32174 8.26016 7.52757 7.65825 7.74164 7.05968C8.3376 8.03921 8.9312 9.02032 9.527 10H9.56833C10.1638 9.01921 10.759 8.03809 11.3546 7.0573C11.5644 7.65825 11.7744 8.25905 11.9835 8.86032C11.7681 8.86048 11.5524 8.86032 11.3369 8.86032C11.3366 9.22429 11.3368 9.58825 11.3368 9.95238C12.7774 9.95238 14.2183 9.95238 15.6589 9.95222C15.6588 9.58825 15.6591 9.22429 15.6588 8.86032C15.3792 8.86048 15.0995 8.86048 14.8198 8.86032C13.8655 6.44651 12.9123 4.03222 11.9579 1.61841C11.154 3.02777 10.3518 4.43809 9.54743 5.8473Z" fill="#F01616"/>
</g>
<defs>
<clipPath id="clip0_44_104">
<rect width="19" height="10" fill="white" transform="matrix(-1 0 0 1 19 0)"/>
</clipPath>
</defs>
</svg>
