<svg width="12" height="12" viewBox="0 0 12 12" fill="none" xmlns="http://www.w3.org/2000/svg">
<path d="M5.96151 0H6.03862C6.64589 0.0147656 7.25339 0.13875 7.80487 0.397031C8.73932 0.822422 9.513 1.59117 9.9412 2.52469C10.2229 3.12398 10.3558 3.79031 10.3427 4.45195C10.3181 5.15766 10.1088 5.84203 9.84487 6.49219C9.29479 7.80141 8.52042 9.00234 7.68253 10.144C7.2419 10.7234 6.79471 11.2987 6.31354 11.8455C6.23995 11.9339 6.13354 11.9927 6.018 12H5.98354C5.85464 11.9941 5.74237 11.9194 5.66432 11.8202C5.33034 11.4335 5.00362 11.0402 4.69448 10.6334C4.15542 9.95086 3.65831 9.23555 3.19917 8.49703C2.81432 7.86984 2.46464 7.21992 2.17682 6.54234C1.90214 5.87789 1.6837 5.17688 1.65792 4.45359C1.64667 3.88711 1.74065 3.31734 1.94714 2.78883C2.34393 1.74492 3.16401 0.870469 4.17909 0.405C4.73456 0.141094 5.34839 0.015 5.96151 0ZM4.2044 1.27336C3.57206 1.64086 3.05948 2.20945 2.75807 2.87555C2.52229 3.38906 2.41659 3.96 2.44354 4.52391C2.49698 5.23266 2.74307 5.91 3.03323 6.55336C3.46987 7.49062 4.01737 8.37281 4.61878 9.21258C5.05003 9.8332 5.51925 10.4262 6.00018 11.0088C6.48464 10.422 6.95714 9.82453 7.39073 9.19898C7.99214 8.35898 8.53823 7.47586 8.9744 6.53813C9.24346 5.9407 9.4694 5.31539 9.54581 4.66125C9.603 4.04766 9.49448 3.41859 9.23456 2.85984C8.8387 1.98961 8.07534 1.29516 7.17112 0.984141C6.20362 0.64125 5.08659 0.746953 4.2044 1.27336Z" fill="white"/>
<path d="M5.866 2.16561C6.37014 2.1328 6.88436 2.28233 7.29029 2.58397C7.68146 2.86897 7.97232 3.2878 8.10334 3.75374C8.24725 4.26163 8.19967 4.82226 7.9667 5.29663C7.7499 5.74921 7.36975 6.11976 6.91459 6.32999C6.50068 6.52311 6.02467 6.57819 5.57701 6.4896C5.0642 6.39069 4.59357 6.09679 4.27412 5.68476C3.99615 5.32733 3.83162 4.88179 3.81732 4.42897C3.79529 3.92741 3.95654 3.42093 4.2624 3.02319C4.63951 2.52327 5.23974 2.19913 5.866 2.16561ZM5.79123 2.95874C5.48678 3.00374 5.19943 3.15374 4.98709 3.3764C4.76349 3.60866 4.62357 3.92015 4.60107 4.24218C4.57623 4.56327 4.6674 4.89186 4.85396 5.15436C5.03935 5.41663 5.31615 5.61421 5.62693 5.69788C5.95248 5.78929 6.31061 5.75601 6.61412 5.60718C6.94436 5.44687 7.20709 5.15226 7.32545 4.80468C7.42764 4.51335 7.42881 4.18827 7.32873 3.89624C7.22396 3.58499 7.00576 3.31335 6.72381 3.14483C6.44725 2.97608 6.11139 2.91022 5.79123 2.95874Z" fill="white"/>
</svg>
