<svg width="29" height="29" viewBox="0 0 29 29" fill="none" xmlns="http://www.w3.org/2000/svg">
<circle cx="14.5" cy="14.5" r="14.5" fill="#8D8D8D"/>
<path opacity="0.4" fill-rule="evenodd" clip-rule="evenodd" d="M14.4025 3.0004C14.435 3.00014 14.4675 3 14.5 3C20.8513 3 26 8.14873 26 14.5C26 14.6825 25.9957 14.864 25.9873 15.0444L24.9886 14.006C24.7445 8.73634 20.616 4.48111 15.4006 4.03808L14.4025 3.0004ZM12.9954 24.893C8.26661 24.2144 4.55524 20.385 4.05697 15.6004L3 14.5015C3.0008 20.7021 7.90882 25.7561 14.0519 25.9914L12.9954 24.893Z" fill="white"/>
<path d="M8.99695 10.1016C9.17332 10.0666 9.35379 10.0811 9.53234 10.0781C13.2508 10.0779 16.969 10.0784 20.6875 10.0779C20.8636 10.0746 21.0421 10.094 21.207 10.1588C21.6629 10.328 21.9888 10.7858 22 11.272V18.757C21.9743 19.2462 21.6347 19.6998 21.169 19.8543C20.9626 19.9306 20.7397 19.9232 20.5232 19.9219C16.7683 19.9219 13.0132 19.9219 9.25809 19.9219C8.9141 19.9276 8.57039 19.7854 8.33578 19.5333C8.13809 19.3274 8.02352 19.0507 8 18.7677V11.273C8.00848 10.7128 8.44543 10.199 8.99695 10.1016ZM9.42023 10.8987C11.168 12.6523 12.9161 14.4056 14.6634 16.1594C14.8348 16.3456 15.1665 16.3442 15.338 16.1586C17.0855 14.405 18.8333 12.6523 20.5806 10.8984C16.8605 10.8987 13.1404 10.8982 9.42023 10.8987ZM8.82059 11.4598C8.82004 13.8198 8.82004 16.1802 8.82059 18.5402C9.99719 17.3603 11.1741 16.1804 12.3496 14.9995C11.173 13.8196 9.99719 12.6391 8.82059 11.4598ZM17.6512 14.9995C18.8262 16.1807 20.0036 17.3595 21.1794 18.5402C21.18 16.1802 21.1797 13.8201 21.1794 11.4598C20.0034 12.64 18.8276 13.8196 17.6512 14.9995ZM9.41996 19.1013C13.1404 19.1018 16.8605 19.1013 20.5809 19.1016C19.4111 17.928 18.2419 16.7544 17.0716 15.5813C16.6729 15.98 16.2767 16.3811 15.8766 16.7782C15.4137 17.225 14.6073 17.2307 14.1381 16.791C13.7318 16.391 13.3329 15.9833 12.9287 15.5813C11.7589 16.7544 10.5897 17.928 9.41996 19.1013Z" fill="white"/>
</svg>
