<svg width="29" height="29" viewBox="0 0 29 29" fill="none" xmlns="http://www.w3.org/2000/svg">
<circle cx="14.5" cy="14.5" r="14.5" fill="#C30A0A"/>
<path opacity="0.4" fill-rule="evenodd" clip-rule="evenodd" d="M14.5975 3.0004C14.565 3.00014 14.5325 3 14.5 3C8.14873 3 3 8.14873 3 14.5C3 14.6825 3.00425 14.864 3.01266 15.0444L4.01141 14.006C4.25545 8.73634 8.38402 4.48111 13.5994 4.03808L14.5975 3.0004ZM16.0046 24.893C20.7334 24.2144 24.4448 20.385 24.943 15.6004L26 14.5015C25.9992 20.7021 21.0912 25.7561 14.9481 25.9914L16.0046 24.893Z" fill="white"/>
<path d="M10.4362 7.50478C10.6009 7.43652 10.7828 7.48721 10.9416 7.54785C11.1645 7.63603 11.3424 7.80859 11.4713 8.00752C12.0525 8.84951 12.6241 9.70527 13.0659 10.6308C13.1805 10.8915 13.3056 11.1613 13.312 11.4511C13.2953 11.7716 13.0595 12.0174 12.833 12.2186C12.5843 12.4366 12.3273 12.6452 12.0821 12.867C12.4056 13.8391 12.9689 14.7297 13.7049 15.4419C14.3916 16.1058 15.2271 16.6176 16.1348 16.9176C16.3132 16.7175 16.4854 16.5121 16.6595 16.3085C16.8361 16.1037 17.0151 15.886 17.2618 15.7636C17.4033 15.6941 17.5668 15.6684 17.7218 15.7038C18.0681 15.7762 18.3865 15.9388 18.7003 16.0964C19.4872 16.5106 20.2311 17.0008 20.9611 17.507C21.134 17.6213 21.298 17.7596 21.3971 17.9453C21.511 18.1562 21.5869 18.4255 21.4592 18.6478C21.2397 19.0703 20.8914 19.406 20.5551 19.7362C19.9709 20.2829 19.3442 20.7868 18.6698 21.2184C18.504 21.3218 18.335 21.4231 18.153 21.4961C18.0139 21.5553 17.8603 21.5201 17.7162 21.5052C16.6691 21.359 15.6748 20.9567 14.7467 20.4619C13.4424 19.7556 12.269 18.8263 11.2126 17.7892C10.5704 17.135 9.9707 16.4374 9.43838 15.6906C8.70595 14.6602 8.08984 13.5344 7.72246 12.3206C7.60468 11.9131 7.50625 11.4974 7.47255 11.0737C7.45058 10.8812 7.56484 10.7131 7.64951 10.5505C7.95478 10.022 8.32744 9.53623 8.71386 9.06513C9.04287 8.67373 9.38681 8.29258 9.77002 7.95303C9.97334 7.7793 10.1849 7.6041 10.4362 7.50478ZM8.40888 11.0479C8.49677 11.8267 8.76718 12.5731 9.09502 13.281C9.579 14.3046 10.2227 15.2471 10.9501 16.1125C11.5267 16.8033 12.1633 17.4435 12.8532 18.0218C13.8561 18.8693 14.9644 19.6079 16.1822 20.1095C16.7506 20.3362 17.3409 20.5258 17.9518 20.5914C18.9156 19.9759 19.7954 19.2309 20.5618 18.3824C20.5278 18.3537 20.4941 18.3244 20.459 18.2975C19.5745 17.6488 18.6229 17.0928 17.628 16.6313C17.2094 17.0617 16.8871 17.5929 16.3811 17.9327C15.7158 17.824 15.0936 17.5431 14.5114 17.212C13.2382 16.4857 12.1952 15.3675 11.5542 14.0497C11.3263 13.5994 11.1502 13.1186 11.0673 12.62C11.4042 12.1097 11.945 11.7959 12.3663 11.3658C11.9081 10.3788 11.3553 9.43515 10.714 8.55596C10.6832 8.51553 10.6498 8.47744 10.617 8.43906C9.76914 9.20517 9.02412 10.0847 8.40888 11.0479Z" fill="white"/>
</svg>
