<svg width="13" height="13" viewBox="0 0 13 13" fill="none" xmlns="http://www.w3.org/2000/svg">
<path d="M3.3668 0H9.59867C11.374 0.0670312 12.9096 1.60164 13 3.37086V9.58445C12.9472 10.4406 12.5958 11.2765 11.9976 11.893C11.3841 12.546 10.5168 12.9289 9.62914 13H3.41453C2.48422 12.9452 1.58133 12.5288 0.951641 11.8402C0.391016 11.242 0.0660156 10.4457 0 9.63117V3.47852C0.0325 2.50352 0.474297 1.54781 1.21164 0.904922C1.80375 0.37375 2.57563 0.0639844 3.3668 0ZM3.29266 1.17305C2.12164 1.28984 1.14867 2.36844 1.15578 3.54656C1.15375 5.54125 1.14766 7.53695 1.15883 9.53164C1.18828 10.7737 2.3075 11.8523 3.54859 11.8442C5.51687 11.8513 7.48719 11.8523 9.45547 11.8442C10.724 11.8513 11.8544 10.723 11.8432 9.45344C11.8483 7.48617 11.8473 5.51992 11.8432 3.55266C11.8432 2.6 11.2206 1.69102 10.338 1.33758C9.7368 1.07555 9.06851 1.16797 8.43172 1.1507C6.71937 1.16492 5.00398 1.12227 3.29266 1.17305Z" fill="white"/>
<path d="M9.59241 2.27398C10.1287 1.95304 10.8792 2.42226 10.8325 3.04179C10.8426 3.65726 10.0809 4.08382 9.56295 3.74461C9.00233 3.45109 9.02061 2.54617 9.59241 2.27398Z" fill="white"/>
<path d="M5.83585 3.21851C7.47202 2.84781 9.25038 3.91828 9.70335 5.53008C10.2061 7.07179 9.38749 8.88164 7.90874 9.53672C6.55999 10.1898 4.81413 9.77742 3.89398 8.59828C3.14851 7.69336 2.94538 6.38523 3.37601 5.29547C3.77312 4.24633 4.7339 3.43586 5.83585 3.21851ZM6.24007 4.32047C5.20109 4.42304 4.3307 5.35945 4.30734 6.40351C4.24132 7.42828 4.99796 8.41953 5.99835 8.63687C6.94288 8.87656 7.99913 8.38906 8.43991 7.52375C8.8289 6.80875 8.76491 5.87945 8.28452 5.22336C7.83359 4.58047 7.02007 4.21992 6.24007 4.32047Z" fill="white"/>
</svg>
