<svg width="15" height="15" viewBox="0 0 15 15" fill="none" xmlns="http://www.w3.org/2000/svg">
<path d="M3.43615 0.504782C3.6008 0.436521 3.78273 0.487204 3.94152 0.547849C4.16447 0.636032 4.3423 0.808591 4.47121 1.00752C5.05246 1.84951 5.62404 2.70527 6.06584 3.63076C6.18039 3.8915 6.30549 4.16132 6.31193 4.45107C6.29523 4.77158 6.05939 5.01738 5.83293 5.21865C5.5842 5.43662 5.32726 5.64521 5.08205 5.86699C5.40549 6.83906 5.96887 7.72968 6.7048 8.44189C7.39152 9.10575 8.22707 9.61757 9.13468 9.91757C9.3131 9.71747 9.48537 9.5121 9.65939 9.30849C9.83605 9.1037 10.0151 8.88603 10.2617 8.76357C10.4032 8.69413 10.5667 8.66835 10.7217 8.7038C11.068 8.77616 11.3864 8.93876 11.7002 9.09638C12.4871 9.51064 13.231 10.0008 13.9611 10.507C14.1339 10.6213 14.298 10.7596 14.397 10.9453C14.511 11.1562 14.5868 11.4255 14.4591 11.6478C14.2397 12.0703 13.8913 12.406 13.555 12.7362C12.9708 13.2829 12.3442 13.7868 11.6697 14.2183C11.5039 14.3218 11.3349 14.4231 11.1529 14.4961C11.0138 14.5553 10.8603 14.5201 10.7161 14.5052C9.66906 14.359 8.67472 13.9567 7.7466 13.4619C6.4423 12.7556 5.26896 11.8263 4.21252 10.7892C3.57033 10.135 2.97062 9.4374 2.4383 8.69062C1.70588 7.66025 1.08976 6.53437 0.722381 5.3206C0.604608 4.91308 0.50617 4.49736 0.472479 4.07373C0.450506 3.88125 0.564764 3.71308 0.649432 3.55048C0.954705 3.02197 1.32736 2.53623 1.71379 2.06513C2.04279 1.67373 2.38674 1.29257 2.76994 0.953024C2.97326 0.779294 3.18478 0.604099 3.43615 0.504782ZM1.40881 4.04794C1.4967 4.82665 1.76711 5.57314 2.09494 6.28095C2.57892 7.30458 3.22258 8.24706 3.95002 9.11249C4.52658 9.80331 5.1632 10.4434 5.85314 11.0218C6.85597 11.8693 7.96428 12.6079 9.18215 13.1095C9.75051 13.3362 10.3408 13.5258 10.9517 13.5914C11.9155 12.9759 12.7953 12.2308 13.5617 11.3824C13.5278 11.3537 13.4941 11.3244 13.4589 11.2975C12.5744 10.6488 11.6229 10.0928 10.6279 9.63134C10.2093 10.0617 9.88703 10.5929 9.38107 10.9327C8.71574 10.824 8.09347 10.5431 7.51135 10.212C6.2381 9.48573 5.19513 8.36747 4.55412 7.0497C4.32619 6.59941 4.15012 6.11865 4.0672 5.62001C4.40412 5.10966 4.94494 4.79589 5.36623 4.36582C4.90803 3.3788 4.35519 2.43515 3.71388 1.55595C3.68312 1.51552 3.64972 1.47744 3.61691 1.43906C2.76906 2.20517 2.02404 3.08466 1.40881 4.04794Z" fill="white"/>
</svg>
