<svg width="16" height="16" viewBox="0 0 16 16" fill="none" xmlns="http://www.w3.org/2000/svg">
<path d="M1.13937 2.40188C1.34094 2.36188 1.54719 2.37844 1.75125 2.375C6.00094 2.37469 10.2503 2.37531 14.5 2.37469C14.7013 2.37094 14.9053 2.39313 15.0938 2.46719C15.6147 2.66063 15.9872 3.18375 16 3.73938V12.2937C15.9706 12.8528 15.5825 13.3713 15.0503 13.5478C14.8144 13.635 14.5597 13.6266 14.3122 13.625C10.0209 13.625 5.72937 13.625 1.43781 13.625C1.04469 13.6316 0.651875 13.4691 0.38375 13.1809C0.157812 12.9456 0.026875 12.6294 0 12.3059V3.74063C0.0096875 3.10031 0.509062 2.51313 1.13937 2.40188ZM1.62312 3.31281C3.62063 5.31688 5.61844 7.32063 7.61531 9.325C7.81125 9.53781 8.19031 9.53625 8.38625 9.32406C10.3834 7.32 12.3809 5.31688 14.3778 3.3125C10.1262 3.31281 5.87469 3.31219 1.62312 3.31281ZM0.937813 3.95406C0.937187 6.65125 0.937187 9.34875 0.937813 12.0459C2.2825 10.6975 3.6275 9.34906 4.97094 7.99938C3.62625 6.65094 2.2825 5.30188 0.937813 3.95406ZM11.03 7.99938C12.3728 9.34938 13.7184 10.6966 15.0622 12.0459C15.0628 9.34875 15.0625 6.65156 15.0622 3.95406C13.7181 5.30281 12.3744 6.65094 11.03 7.99938ZM1.62281 12.6872C5.87469 12.6878 10.1263 12.6872 14.3781 12.6875C13.0413 11.3463 11.705 10.005 10.3675 8.66438C9.91188 9.12 9.45906 9.57844 9.00187 10.0322C8.47281 10.5428 7.55125 10.5494 7.015 10.0469C6.55062 9.58969 6.09469 9.12375 5.63281 8.66438C4.29594 10.005 2.95969 11.3462 1.62281 12.6872Z" fill="white"/>
</svg>
