<svg width="118" height="118" viewBox="0 0 118 118" fill="none" xmlns="http://www.w3.org/2000/svg">
<path d="M23.9702 49.7502C23.9702 49.1741 24.1771 48.6792 24.5907 48.2655C25.0044 47.8518 25.4993 47.645 26.0755 47.645H44.0919C48.5092 47.645 51.7668 48.9155 53.8647 51.4566C55.0318 52.8601 55.6154 54.6551 55.6154 56.8416C55.6154 59.0133 54.6181 60.9117 52.6237 62.5368C55.4602 64.0585 56.8785 66.4223 56.8785 69.6282C56.8785 72.834 55.7409 75.2717 53.4658 76.9411C51.2054 78.5958 48.428 79.4231 45.1335 79.4231H26.0755C25.4993 79.4231 25.0044 79.2236 24.5907 78.8248C24.1771 78.4111 23.9702 77.9162 23.9702 77.34V49.7502ZM32.3247 73.4398H45.0005C46.1381 73.4398 47.0097 73.1 47.6154 72.4204C48.2212 71.7408 48.524 70.8101 48.524 69.6282C48.524 68.4463 48.2212 67.5155 47.6154 66.8359C47.0097 66.1564 46.1381 65.8166 45.0005 65.8166H32.3247V73.4398ZM32.3247 59.9884H44.1806C45.1113 59.9884 45.8574 59.7151 46.4188 59.1684C46.9802 58.607 47.2609 57.8314 47.2609 56.8416C47.2609 55.837 46.9802 55.054 46.4188 54.4926C45.8574 53.9312 45.1113 53.6505 44.1806 53.6505H32.3247V59.9884Z" fill="#C30A0A"/>
<path d="M74.8285 79.6004C69.9236 79.6004 66.1564 78.2781 63.5266 75.6337C60.9117 72.9892 59.6042 68.9486 59.6042 63.5119C59.6042 58.0604 60.9708 54.0272 63.7039 51.4123C66.4518 48.7826 70.5663 47.4677 76.0473 47.4677H80.9891C84.2541 47.4677 87.194 48.2507 89.809 49.8167C92.4387 51.368 93.7535 53.3107 93.7535 55.6449C93.7535 56.5166 93.495 57.1444 92.9779 57.5286C92.4608 57.8979 91.9585 58.0826 91.471 58.0826H88.8339C87.5634 58.0826 86.5514 57.3587 85.7979 55.9108C85.0445 54.463 83.183 53.7391 80.2135 53.7391H76.2689C73.0335 53.7391 70.8396 54.4335 69.6873 55.8222C68.5349 57.2109 67.9587 59.7668 67.9587 63.4897C67.9587 67.2127 68.4758 69.7907 69.51 71.2237C70.5441 72.642 72.3908 73.3511 75.0501 73.3511H79.593C81.9715 73.3511 83.6705 72.9005 84.6899 71.9993C85.7093 71.0834 86.2337 69.7759 86.2633 68.0769H81.255C80.6788 68.0769 80.1839 67.8775 79.7703 67.4786C79.3714 67.0649 79.1719 66.57 79.1719 65.9939V64.2653C79.1719 63.6892 79.3714 63.2016 79.7703 62.8027C80.1839 62.3891 80.6788 62.1823 81.255 62.1823H92.3796C92.9557 62.1823 93.4433 62.3891 93.8422 62.8027C94.2558 63.2016 94.4626 63.6892 94.4626 64.2653V66.7251C94.4626 70.8618 93.2217 74.0455 90.7397 76.2763C88.2577 78.4923 84.616 79.6004 79.8146 79.6004H74.8285Z" fill="#C30A0A"/>
<path opacity="0.9" fill-rule="evenodd" clip-rule="evenodd" d="M59.3282 17.9612C58.477 17.5092 57.3826 17.9264 56.931 18.7435C53.6826 23.9591 48.7318 27.9751 43.2078 30.5656C37.319 33.3124 30.6832 34.5642 24.2212 33.7992C24.0428 33.7799 23.8645 33.7499 23.6865 33.72C23.2231 33.642 22.7622 33.5645 22.3104 33.6775C21.6329 33.834 21.1465 34.4946 21.1812 35.1727C21.2634 38.3327 21.4937 41.49 21.8772 44.6282H25.0582C24.7848 42.0338 24.6098 39.4298 24.5339 36.8243C37.3364 38.302 50.8685 32.7735 58.5986 22.3771C62.2639 27.3319 67.3363 31.174 72.9645 33.6949C79.1139 36.4244 85.9928 37.6066 92.6807 36.8243C92.5984 39.4303 92.4227 42.0344 92.1508 44.6282H94.9619C95.3677 41.3764 95.6129 38.1045 95.6859 34.825C95.6859 34.0079 94.7652 33.4515 94.0183 33.6254C87.2262 34.7207 80.1561 33.5037 73.9373 30.6177C68.6217 28.149 63.862 24.359 60.5615 19.4737C60.4856 19.3616 60.4127 19.2464 60.3397 19.1311C60.0618 18.6921 59.7822 18.2503 59.3282 17.9612ZM82.345 81.3141H80.4589C78.8239 83.9309 76.9881 86.4178 74.9274 88.7195C70.5499 93.6048 65.1128 97.6034 58.9287 99.8461C59.1718 99.794 59.3977 99.7418 59.6409 99.6723C63.2019 98.5596 66.5719 96.8733 69.6466 94.7349C74.7364 91.1829 78.9463 86.4914 82.345 81.3141ZM36.7946 81.3141H34.8699C35.9366 82.9126 37.0754 84.463 38.2918 85.9553C41.3665 89.7105 44.9623 93.0659 49.0619 95.6737C51.9281 97.4644 55.0202 98.9769 58.3033 99.8461C50.3126 96.9428 43.6247 91.1361 38.7608 84.2515C38.0749 83.2915 37.42 82.3116 36.7946 81.3141Z" fill="#C30A0A"/>
</svg>
