<svg width="535" height="312" viewBox="0 0 535 312" fill="none" xmlns="http://www.w3.org/2000/svg">
<path d="M36.3789 141.543C36.3789 140.02 36.9258 138.711 38.0195 137.617C39.1133 136.523 40.4219 135.977 41.9453 135.977H89.582C101.262 135.977 109.875 139.336 115.422 146.055C118.508 149.766 120.051 154.512 120.051 160.293C120.051 166.035 117.414 171.055 112.141 175.352C119.641 179.375 123.391 185.625 123.391 194.102C123.391 202.578 120.383 209.023 114.367 213.438C108.391 217.812 101.047 220 92.3359 220H41.9453C40.4219 220 39.1133 219.473 38.0195 218.418C36.9258 217.324 36.3789 216.016 36.3789 214.492V141.543ZM58.4688 204.18H91.9844C94.9922 204.18 97.2969 203.281 98.8984 201.484C100.5 199.688 101.301 197.227 101.301 194.102C101.301 190.977 100.5 188.516 98.8984 186.719C97.2969 184.922 94.9922 184.023 91.9844 184.023H58.4688V204.18ZM58.4688 168.613H89.8164C92.2773 168.613 94.25 167.891 95.7344 166.445C97.2188 164.961 97.9609 162.91 97.9609 160.293C97.9609 157.637 97.2188 155.566 95.7344 154.082C94.25 152.598 92.2773 151.855 89.8164 151.855H58.4688V168.613ZM178.645 170.664L169.621 170.312C164.348 170.312 159.309 173.203 154.504 178.984V216.426C154.504 217.48 154.152 218.34 153.449 219.004C152.785 219.668 151.945 220 150.93 220H137.805C136.75 220 135.891 219.668 135.227 219.004C134.562 218.34 134.23 217.48 134.23 216.426V159.414C134.23 158.359 134.562 157.5 135.227 156.836C135.93 156.133 136.789 155.781 137.805 155.781H150.93C151.984 155.781 152.844 156.133 153.508 156.836C154.172 157.5 154.504 158.359 154.504 159.414V163.105C158.488 160.215 162.316 158.086 165.988 156.719C169.699 155.312 174.543 154.609 180.52 154.609C181.574 154.609 182.434 154.961 183.098 155.664C183.801 156.328 184.152 157.168 184.152 158.184V167.09C184.152 168.145 183.801 169.004 183.098 169.668C182.434 170.332 181.574 170.664 180.52 170.664H178.645ZM192.59 143.535V141.543C192.59 139.473 193.176 137.832 194.348 136.621C195.559 135.41 197.219 134.805 199.328 134.805H206.594C208.664 134.805 210.305 135.41 211.516 136.621C212.727 137.793 213.332 139.434 213.332 141.543V143.535C213.332 145.605 212.727 147.246 211.516 148.457C210.344 149.668 208.703 150.273 206.594 150.273H199.328C197.258 150.273 195.617 149.668 194.406 148.457C193.195 147.246 192.59 145.605 192.59 143.535ZM192.824 216.426V160.82C192.824 159.766 193.156 158.906 193.82 158.242C194.523 157.578 195.383 157.246 196.398 157.246H209.523C210.578 157.246 211.438 157.598 212.102 158.301C212.766 158.965 213.098 159.805 213.098 160.82V216.426C213.098 217.48 212.746 218.34 212.043 219.004C211.379 219.668 210.539 220 209.523 220H196.398C195.344 220 194.484 219.668 193.82 219.004C193.156 218.34 192.824 217.48 192.824 216.426Z" fill="#8D8D8D"/>
<path d="M264.367 220.469C251.398 220.469 241.438 216.973 234.484 209.98C227.57 202.988 224.113 192.305 224.113 177.93C224.113 163.516 227.727 152.852 234.953 145.938C242.219 138.984 253.098 135.508 267.59 135.508H280.656C289.289 135.508 297.062 137.578 303.977 141.719C310.93 145.82 314.406 150.957 314.406 157.129C314.406 159.434 313.723 161.094 312.355 162.109C310.988 163.086 309.66 163.574 308.371 163.574H301.398C298.039 163.574 295.363 161.66 293.371 157.832C291.379 154.004 286.457 152.09 278.605 152.09H268.176C259.621 152.09 253.82 153.926 250.773 157.598C247.727 161.27 246.203 168.027 246.203 177.871C246.203 187.715 247.57 194.531 250.305 198.32C253.039 202.07 257.922 203.945 264.953 203.945H276.965C283.254 203.945 287.746 202.754 290.441 200.371C293.137 197.949 294.523 194.492 294.602 190H281.359C279.836 190 278.527 189.473 277.434 188.418C276.379 187.324 275.852 186.016 275.852 184.492V179.922C275.852 178.398 276.379 177.109 277.434 176.055C278.527 174.961 279.836 174.414 281.359 174.414H310.773C312.297 174.414 313.586 174.961 314.641 176.055C315.734 177.109 316.281 178.398 316.281 179.922V186.426C316.281 197.363 313 205.781 306.438 211.68C299.875 217.539 290.246 220.469 277.551 220.469H264.367ZM371.535 170.664L362.512 170.312C357.238 170.312 352.199 173.203 347.395 178.984V216.426C347.395 217.48 347.043 218.34 346.34 219.004C345.676 219.668 344.836 220 343.82 220H330.695C329.641 220 328.781 219.668 328.117 219.004C327.453 218.34 327.121 217.48 327.121 216.426V159.414C327.121 158.359 327.453 157.5 328.117 156.836C328.82 156.133 329.68 155.781 330.695 155.781H343.82C344.875 155.781 345.734 156.133 346.398 156.836C347.062 157.5 347.395 158.359 347.395 159.414V163.105C351.379 160.215 355.207 158.086 358.879 156.719C362.59 155.312 367.434 154.609 373.41 154.609C374.465 154.609 375.324 154.961 375.988 155.664C376.691 156.328 377.043 157.168 377.043 158.184V167.09C377.043 168.145 376.691 169.004 375.988 169.668C375.324 170.332 374.465 170.664 373.41 170.664H371.535ZM388.41 215.781C383.254 212.188 380.676 207.109 380.676 200.547C380.676 193.984 383.254 188.945 388.41 185.43C393.605 181.914 400.285 180.156 408.449 180.156H427.844C427.844 175.586 426.887 172.402 424.973 170.605C423.059 168.809 419.699 167.91 414.895 167.91C410.129 167.91 406.77 169.102 404.816 171.484C402.902 173.828 400.539 175 397.727 175H388.996C387.941 175 387.062 174.668 386.359 174.004C385.695 173.301 385.363 172.441 385.363 171.426C385.363 160.215 396.008 154.609 417.297 154.609C426.594 154.609 434.055 156.699 439.68 160.879C445.305 165.02 448.117 171.445 448.117 180.156V216.426C448.117 217.48 447.785 218.34 447.121 219.004C446.457 219.668 445.598 220 444.543 220H433.234C432.18 220 431.32 219.668 430.656 219.004C429.992 218.301 429.66 217.441 429.66 216.426V214.609C423.488 219.023 416.359 221.211 408.273 221.172C400.227 221.172 393.605 219.375 388.41 215.781ZM409.855 193.457C407.121 193.457 404.953 194.121 403.352 195.449C401.789 196.777 401.008 198.496 401.008 200.605C401.008 202.715 401.828 204.453 403.469 205.82C405.109 207.188 407.434 207.871 410.441 207.871C416.457 207.871 422.258 206.113 427.844 202.598V193.457H409.855ZM487.668 221.172C479.504 221.172 472.668 218.301 467.16 212.559C461.691 206.816 458.957 198.594 458.957 187.891C458.957 177.148 461.789 168.926 467.453 163.223C473.156 157.48 480.812 154.609 490.422 154.609C495.383 154.609 501.027 155.605 507.355 157.598V139.609C507.355 138.555 507.688 137.695 508.352 137.031C509.055 136.328 509.914 135.977 510.93 135.977H523.996C525.051 135.977 525.91 136.328 526.574 137.031C527.277 137.695 527.629 138.555 527.629 139.609V216.426C527.629 217.441 527.277 218.301 526.574 219.004C525.91 219.668 525.051 220 523.996 220H512.746C511.691 220 510.832 219.668 510.168 219.004C509.504 218.301 509.172 217.441 509.172 216.426V214.609C503 218.984 495.832 221.172 487.668 221.172ZM494.641 168.789C489.25 168.789 485.441 170.312 483.215 173.359C480.988 176.367 479.875 181.211 479.875 187.891C479.875 194.57 480.93 199.434 483.039 202.48C485.148 205.527 488.312 207.051 492.531 207.051C496.789 207.051 501.73 205.293 507.355 201.777V171.133C502.316 169.57 498.078 168.789 494.641 168.789Z" fill="#C30A0A"/>
<path fill-rule="evenodd" clip-rule="evenodd" d="M158.559 12.7969C155.573 11.2125 151.734 12.675 150.15 15.5391C138.755 33.8203 121.388 47.8969 102.009 56.9766C81.3516 66.6047 58.0734 70.9922 35.4047 68.3109C34.7791 68.2433 34.1535 68.1381 33.5292 68.0332C31.9035 67.7599 30.2866 67.4881 28.7016 67.8844C26.325 68.4328 24.6188 70.7484 24.7406 73.125C25.211 91.1921 27.0632 109.234 30.3771 127H41.1376C38.5194 111.092 36.9713 95.0112 36.5016 78.9141C81.4125 84.0937 128.883 64.7156 156 28.275C168.858 45.6422 186.652 59.1094 206.395 67.9453C227.967 77.5125 252.098 81.6562 275.559 78.9141C275.051 95.0171 273.522 111.099 270.926 127H280.343C283.714 108.827 285.69 90.4011 286.102 71.9062C286.102 69.0422 282.872 67.0922 280.252 67.7015C256.425 71.5406 231.623 67.275 209.808 57.1594C191.161 48.5062 174.464 35.2219 162.886 18.0984C162.62 17.7054 162.364 17.3018 162.108 16.8975C161.133 15.3588 160.152 13.8103 158.559 12.7969ZM244.817 226H237.931C230.954 238.435 222.802 250.187 213.281 260.812C197.925 277.936 178.852 291.952 157.158 299.812C158.011 299.63 158.803 299.447 159.656 299.203C172.148 295.303 183.97 289.392 194.756 281.897C212.672 269.405 227.48 252.891 239.423 234.67C241.286 231.819 243.083 228.927 244.817 226ZM74.2459 226H67.1348C72.4284 234.762 78.2824 243.178 84.7641 251.123C95.55 264.286 108.164 276.047 122.545 285.188C132.6 291.464 143.447 296.766 154.964 299.812C126.933 289.636 103.472 269.283 86.4094 245.152C82.0005 238.986 77.9568 232.586 74.2459 226Z" fill="#8D8D8D"/>
<path fill-rule="evenodd" clip-rule="evenodd" d="M263.437 97.5474C261.44 97.5339 259.434 97.5203 257.4 97.5609C257.215 101.724 256.819 105.886 256.426 110.022C256.301 111.336 256.177 112.646 256.059 113.953C255.558 118.308 254.979 122.659 254.316 127H262.748C264.418 117.248 265.633 107.417 266.419 97.5609C265.426 97.5609 264.433 97.5542 263.437 97.5474ZM225.625 226H219.762C210.051 241.411 198.071 255.372 183.422 266.297C174.464 273.183 164.409 278.362 153.989 282.628C173.245 276.961 190.673 265.931 204.75 251.733C212.586 243.897 219.509 235.227 225.625 226Z" fill="#C30A0A"/>
<path d="M309.933 120.272C309.933 121.457 309.728 122.497 309.319 123.394C308.909 124.285 308.323 124.971 307.559 125.452C306.801 125.928 305.927 126.166 304.936 126.166C304.012 126.166 303.185 125.956 302.454 125.535C301.724 125.115 301.14 124.511 300.703 123.726C300.265 122.94 300.008 122.024 299.931 120.978H298.42V126H296.328V113.914H298.42V119.351H299.906C299.939 118.239 300.169 117.257 300.595 116.404C301.021 115.547 301.607 114.891 302.354 114.437C303.107 113.978 303.962 113.748 304.919 113.748C305.904 113.748 306.776 113.986 307.534 114.462C308.298 114.932 308.887 115.613 309.302 116.504C309.717 117.389 309.928 118.421 309.933 119.6V120.272ZM307.833 119.642C307.833 118.302 307.578 117.276 307.069 116.562C306.566 115.848 305.849 115.491 304.919 115.491C304.012 115.491 303.301 115.848 302.786 116.562C302.277 117.27 302.017 118.275 302.006 119.575V120.272C302.006 121.601 302.263 122.627 302.778 123.352C303.298 124.077 304.017 124.439 304.936 124.439C305.866 124.439 306.58 124.085 307.078 123.377C307.581 122.669 307.833 121.634 307.833 120.272V119.642ZM313.901 121.509V126H311.801V113.914H316.424C317.775 113.914 318.845 114.265 319.637 114.968C320.434 115.671 320.832 116.601 320.832 117.757C320.832 118.942 320.442 119.863 319.662 120.521C318.887 121.18 317.799 121.509 316.399 121.509H313.901ZM313.901 119.824H316.424C317.171 119.824 317.741 119.65 318.134 119.301C318.527 118.947 318.724 118.438 318.724 117.774C318.724 117.121 318.524 116.601 318.126 116.213C317.728 115.82 317.18 115.618 316.482 115.607H313.901V119.824ZM330.079 113.914H332.179V126H330.079V117.392L324.775 126H322.675V113.914H324.775V122.53L330.079 113.914ZM345.992 128.972H344V126H336.039V128.972H334.014L333.947 124.323H334.918C335.4 123.858 335.785 123.183 336.072 122.298C336.36 121.407 336.545 120.4 336.628 119.276L336.944 113.914H344.564V124.323H346.1L345.992 128.972ZM337.292 124.323H342.472V115.607H338.944L338.745 119.011C338.596 121.285 338.111 123.056 337.292 124.323ZM355.081 113.914H357.181V126H355.081V117.392L349.777 126H347.677V113.914H349.777V122.53L355.081 113.914ZM368.711 113.914V126H366.619V121.244C365.723 121.471 364.787 121.584 363.813 121.584C362.369 121.584 361.276 121.266 360.535 120.629C359.793 119.993 359.42 119.033 359.414 117.749V113.914H361.506V117.766C361.511 118.535 361.688 119.083 362.037 119.409C362.386 119.736 362.978 119.899 363.813 119.899C364.776 119.899 365.712 119.783 366.619 119.55V113.914H368.711ZM378.298 120.604H373.334V124.323H379.137V126H371.234V113.914H379.079V115.607H373.334V118.944H378.298V120.604ZM390.069 122.065C389.947 123.355 389.471 124.362 388.641 125.087C387.811 125.806 386.707 126.166 385.329 126.166C384.366 126.166 383.517 125.939 382.781 125.485C382.05 125.026 381.486 124.376 381.087 123.535C380.689 122.694 380.481 121.717 380.465 120.604V119.476C380.465 118.336 380.667 117.331 381.071 116.462C381.475 115.594 382.053 114.924 382.806 114.454C383.564 113.983 384.438 113.748 385.429 113.748C386.762 113.748 387.836 114.111 388.649 114.835C389.463 115.56 389.936 116.584 390.069 117.907H387.977C387.877 117.038 387.623 116.413 387.213 116.031C386.809 115.643 386.215 115.45 385.429 115.45C384.516 115.45 383.813 115.785 383.32 116.454C382.833 117.118 382.584 118.095 382.573 119.384V120.455C382.573 121.761 382.806 122.757 383.271 123.443C383.741 124.13 384.427 124.473 385.329 124.473C386.154 124.473 386.773 124.287 387.188 123.917C387.604 123.546 387.866 122.929 387.977 122.065H390.069ZM395.531 120.82H394.103V126H392.011V113.914H394.103V118.994H395.257L398.81 113.914H401.383L397.232 119.7L401.748 126H399.225L395.531 120.82ZM409.675 123.186H404.994L404.014 126H401.831L406.396 113.914H408.281L412.854 126H410.663L409.675 123.186ZM405.583 121.493H409.086L407.334 116.479L405.583 121.493ZM420.192 126V121.484H417.852L415.519 126H413.27L415.967 120.862C414.562 120.198 413.859 119.11 413.859 117.6C413.859 116.443 414.238 115.544 414.996 114.902C415.76 114.254 416.822 113.925 418.184 113.914H422.292V126H420.192ZM415.951 117.691C415.951 118.372 416.142 118.903 416.523 119.285C416.905 119.667 417.478 119.857 418.242 119.857H420.192V115.607H418.242C417.467 115.607 416.891 115.793 416.515 116.164C416.139 116.534 415.951 117.043 415.951 117.691ZM432.602 120.82H431.174V126H429.083V113.914H431.174V118.994H432.328L435.881 113.914H438.454L434.304 119.7L438.819 126H436.296L432.602 120.82ZM449.361 120.272C449.361 121.457 449.157 122.497 448.747 123.394C448.338 124.285 447.751 124.971 446.987 125.452C446.229 125.928 445.355 126.166 444.364 126.166C443.385 126.166 442.51 125.928 441.741 125.452C440.978 124.971 440.385 124.287 439.965 123.402C439.55 122.516 439.34 121.495 439.334 120.339V119.658C439.334 118.479 439.542 117.439 439.957 116.537C440.377 115.635 440.966 114.946 441.725 114.47C442.488 113.989 443.363 113.748 444.348 113.748C445.333 113.748 446.204 113.986 446.962 114.462C447.726 114.932 448.315 115.613 448.73 116.504C449.146 117.389 449.356 118.421 449.361 119.6V120.272ZM447.261 119.642C447.261 118.302 447.007 117.276 446.498 116.562C445.994 115.848 445.277 115.491 444.348 115.491C443.44 115.491 442.729 115.848 442.214 116.562C441.705 117.27 441.445 118.275 441.434 119.575V120.272C441.434 121.601 441.691 122.627 442.206 123.352C442.726 124.077 443.446 124.439 444.364 124.439C445.294 124.439 446.008 124.085 446.506 123.377C447.009 122.669 447.261 121.634 447.261 120.272V119.642ZM454.176 113.914L457.662 123.178L461.14 113.914H463.854V126H461.763V122.016L461.97 116.687L458.401 126H456.898L453.337 116.695L453.545 122.016V126H451.453V113.914H454.176ZM475.907 126H473.815V115.607H468.495V126H466.403V113.914H475.907V126ZM485.212 123.186H480.531L479.551 126H477.368L481.934 113.914H483.818L488.392 126H486.2L485.212 123.186ZM481.12 121.493H484.623L482.872 116.479L481.12 121.493ZM499.365 126H497.273V120.629H491.87V126H489.77V113.914H491.87V118.944H497.273V113.914H499.365V126ZM509.26 113.914H511.36V126H509.26V117.392L503.956 126H501.855V113.914H503.956V122.53L509.26 113.914ZM519.835 126V121.484H517.494L515.162 126H512.912L515.61 120.862C514.204 120.198 513.501 119.11 513.501 117.6C513.501 116.443 513.881 115.544 514.639 114.902C515.402 114.254 516.465 113.925 517.826 113.914H521.935V126H519.835ZM515.593 117.691C515.593 118.372 515.784 118.903 516.166 119.285C516.548 119.667 517.121 119.857 517.884 119.857H519.835V115.607H517.884C517.11 115.607 516.534 115.793 516.158 116.164C515.781 116.534 515.593 117.043 515.593 117.691Z" fill="white"/>
</svg>
